<?xml version="1.0" encoding="utf-8"?>
<!-- Generator: Adobe Illustrator 16.0.0, SVG Export Plug-In . SVG Version: 6.00 Build 0)  -->
<!DOCTYPE svg PUBLIC "-//W3C//DTD SVG 1.1//EN" "http://www.w3.org/Graphics/SVG/1.1/DTD/svg11.dtd">
<svg version="1.1" id="Layer_1" xmlns="http://www.w3.org/2000/svg" xmlns:xlink="http://www.w3.org/1999/xlink" x="0px" y="0px"
	 width="397.717px" height="103.153px" viewBox="0 0 397.717 103.153" enable-background="new 0 0 397.717 103.153"
	 xml:space="preserve">
<g>
	<path fill="#EA8C00" d="M360.616,45.835c0,10.14-6.605,18.771-15.838,22.013c-2.264,2.822-8.16,9.527-8.16,9.527l0.008-31.191
		l7.553-8.024l-15.348,0.007c0,0,0.025,23.599,0.025,29.751c-9.354-3.172-16.066-11.859-16.066-22.083
		c0-12.904,10.705-23.376,23.914-23.376C349.905,22.459,360.616,32.931,360.616,45.835z"/>
	<path fill="#21282E" d="M59.809,69.495c-13.342,0-24.042-10.574-24.042-23.795c0-12.602,11.008-23.24,24.042-23.24
		c13.157,0,23.981,10.577,23.981,23.548C83.791,58.86,72.966,69.495,59.809,69.495z M59.809,26.641
		c-10.512,0-19.429,8.795-19.429,19.185c-0.001,10.759,8.732,19.49,19.429,19.49c10.576,0,19.373-8.73,19.373-19.246
		C79.182,35.436,70.385,26.641,59.809,26.641z"/>
	<path fill="#21282E" d="M108.027,69.495c-5.595,0-10.148-2.275-13.094-6.576v17.584h-4.552V35.064h4.552v5.778
		c2.826-4.244,7.499-6.579,13.215-6.579c10.023,0,17.713,7.687,17.713,17.711C125.861,61.809,118.051,69.495,108.027,69.495z
		 M107.966,38.446c-7.436,0-13.34,5.842-13.34,13.285c0,7.746,5.716,13.584,13.401,13.584c7.504,0,13.219-5.779,13.219-13.34
		C121.246,44.227,115.531,38.446,107.966,38.446z"/>
	<path fill="#21282E" d="M149.971,69.495c-5.594,0-10.147-2.275-13.096-6.576v17.584h-4.55V35.064h4.55v5.778
		c2.828-4.244,7.502-6.579,13.218-6.579c10.023,0,17.71,7.687,17.71,17.711C167.803,61.809,159.996,69.495,149.971,69.495z
		 M149.909,38.446c-7.437,0-13.342,5.842-13.342,13.285c0,7.746,5.717,13.584,13.405,13.584c7.503,0,13.22-5.779,13.22-13.34
		C163.191,44.227,157.475,38.446,149.909,38.446z"/>
	<path fill="#21282E" d="M231.961,69.495c-10.453,0-18.016-7.5-18.016-17.83c0-9.838,7.686-17.401,17.646-17.398
		c10.082,0,17.463,7.438,17.463,17.708C249.055,62.057,241.799,69.495,231.961,69.495z M231.592,38.446
		c-7.441,0-13.037,5.718-13.037,13.343c0,7.871,5.537,13.525,13.281,13.525c7.318,0,12.607-5.596,12.607-13.281
		C244.444,44.227,238.971,38.446,231.592,38.446z"/>
	<path fill="#21282E" d="M260.069,49.083v19.615h-4.549V35.066h4.549v4.793c1.783-3.689,4.676-5.351,9.531-5.593v4.489
		C263.264,39.37,260.069,42.813,260.069,49.083z"/>
	<path fill="#21282E" d="M275.446,53.387c0.369,6.641,6.209,11.928,13.096,11.928c5.102,0,9.84-3.074,11.744-7.686h4.734
		c-2.152,6.395-8.73,11.865-16.357,11.865c-9.957,0-17.771-7.805-17.771-17.764c0-9.781,7.688-17.464,17.463-17.464
		c9.963,0,17.525,7.194,17.525,19.121H275.446z M288.295,38.446c-6.395,0-11.5,4.367-12.73,10.822h25.764
		C299.795,42.566,294.813,38.446,288.295,38.446z"/>
	<path fill="#21282E" d="M199.733,40.272v22.351c0.016,3.514,1.789,5.225,2.791,5.754c2.016,1.062,3.758,1.426,9.316,0.838v-4.104
		c-1.443,0.145-2.959,0.145-4.24,0.152c-0.445,0.004-1.418-0.131-1.967-0.406c-0.717-0.355-1.395-1.188-1.395-2.461
		c0-1.49,0.041-22.125,0.041-22.125l7.561-0.03v-4.113l-7.561,0.03V24.363h-4.547v11.796"/>
	<path fill="#21282E" d="M183.021,69.563c-7.126,0-11.51-4.719-11.507-10.744l4.819,0.098c0.226,3.992,2.625,6.447,6.493,6.447
		c3.357,0,6.585-2.297,6.585-5.934c0-3.092-2.698-5.541-6.148-6.336c-2.422-0.559-5.514-1.412-7.505-2.885
		c-2.18-1.611-3.175-4.376-3.175-6.756c0-5.437,4.713-9.656,10.16-9.656c5.893,0,10.9,4.588,11.069,9.692l-4.595-0.016
		c-0.301-3.167-3.118-5.609-6.539-5.525c-3.049,0.075-5.294,2.504-5.294,5.122c0,2.338,1.516,4.093,3.954,4.965
		c1.856,0.662,5.033,1.178,7.879,2.879c4,2.391,4.845,5.404,4.852,8.34C194.084,65.584,187.968,69.563,183.021,69.563z"/>
</g>
</svg>
