<?xml version="1.0" encoding="utf-8"?>
<!-- Generator: Adobe Illustrator 16.0.0, SVG Export Plug-In . SVG Version: 6.00 Build 0)  -->
<!DOCTYPE svg PUBLIC "-//W3C//DTD SVG 1.1//EN" "http://www.w3.org/Graphics/SVG/1.1/DTD/svg11.dtd">
<svg version="1.1" id="Layer_1" xmlns="http://www.w3.org/2000/svg" xmlns:xlink="http://www.w3.org/1999/xlink" x="0px" y="0px"
	 width="72px" height="72px" viewBox="0 0 72 72" enable-background="new 0 0 72 72" xml:space="preserve">
<circle fill="#95A5A6" cx="36" cy="36" r="36"/>
<g>
	<g>
		<path d="M18,23v18h36V23H18z M31.536,38.75h-7.901c0-1.869-1.515-3.384-3.384-3.384V29.75c2.485,0,4.5-2.014,4.5-4.5h6.786
			c-1.401,1.649-2.286,4.062-2.286,6.75S30.134,37.101,31.536,38.75z M38.959,34.619c-0.181,0.294-0.42,0.534-0.717,0.721
			c-0.295,0.188-0.632,0.324-1.011,0.41c-0.197,0.046-0.396,0.079-0.599,0.101V36.5h-1.266v-0.663
			c-0.194-0.025-0.384-0.061-0.567-0.108c-0.4-0.104-0.749-0.257-1.044-0.472c-0.296-0.215-0.533-0.479-0.711-0.813
			c-0.17-0.321-0.262-0.756-0.276-1.107h1.387c0.007,0.211,0.058,0.459,0.155,0.646c0.103,0.201,0.248,0.344,0.433,0.472
			c0.181,0.125,0.389,0.216,0.624,0.274v-2.415c-0.171-0.043-0.353-0.087-0.545-0.136c-0.341-0.083-0.624-0.192-0.85-0.327
			c-0.226-0.135-0.405-0.285-0.539-0.451c-0.133-0.166-0.228-0.343-0.283-0.529s-0.083-0.377-0.083-0.57
			c0-0.373,0.083-0.696,0.25-0.97c0.167-0.272,0.387-0.499,0.661-0.679s0.585-0.312,0.933-0.4c0.151-0.037,0.304-0.066,0.457-0.087
			V27.5h1.265v0.668c0.173,0.025,0.342,0.059,0.505,0.104c0.367,0.1,0.688,0.25,0.966,0.451c0.278,0.2,0.499,0.447,0.661,0.741
			c0.148,0.268,0.229,0.568,0.242,0.919H37.61c-0.053-0.422-0.224-0.727-0.512-0.909c-0.138-0.088-0.294-0.155-0.466-0.203v2.135
			c0.182,0.045,0.363,0.089,0.539,0.132c0.24,0.059,0.412,0.103,0.517,0.13c0.26,0.076,0.485,0.18,0.678,0.311
			c0.192,0.132,0.354,0.282,0.482,0.452c0.13,0.17,0.227,0.351,0.29,0.544c0.062,0.193,0.094,0.388,0.094,0.581
			C39.231,33.971,39.141,34.326,38.959,34.619z M51.75,35.366c-1.828,0-3.375,1.515-3.375,3.384h-7.911
			c1.401-1.649,2.286-4.062,2.286-6.75s-0.885-5.101-2.286-6.75h6.786c0,2.486,2.015,4.5,4.5,4.5V35.366z"/>
		<circle cx="24.75" cy="32" r="2.25"/>
		<circle cx="47.25" cy="32" r="2.25"/>
		<path d="M37.188,32.788c-0.168-0.058-0.353-0.113-0.555-0.168v2.17c0.112-0.017,0.216-0.038,0.311-0.067
			c0.214-0.066,0.388-0.151,0.522-0.254c0.134-0.104,0.229-0.224,0.288-0.358c0.06-0.135,0.09-0.271,0.09-0.41
			c0-0.283-0.068-0.492-0.206-0.627S37.351,32.844,37.188,32.788z"/>
		<path d="M34.594,29.677c-0.093,0.125-0.139,0.28-0.139,0.467c0,0.263,0.087,0.469,0.261,0.617
			c0.167,0.143,0.384,0.251,0.651,0.327v-1.853c-0.153,0.032-0.295,0.08-0.423,0.146C34.803,29.454,34.687,29.552,34.594,29.677z"/>
	</g>
	<rect x="18" y="42.125" width="36" height="1.125"/>
	<rect x="18" y="44.375" width="36" height="1.125"/>
</g>
</svg>
