<?xml version="1.0" encoding="utf-8"?>
<!-- Generator: Adobe Illustrator 16.0.0, SVG Export Plug-In . SVG Version: 6.00 Build 0)  -->
<!DOCTYPE svg PUBLIC "-//W3C//DTD SVG 1.1//EN" "http://www.w3.org/Graphics/SVG/1.1/DTD/svg11.dtd">
<svg version="1.1" id="Layer_1" xmlns="http://www.w3.org/2000/svg" xmlns:xlink="http://www.w3.org/1999/xlink" x="0px" y="0px"
	 width="72px" height="72px" viewBox="0 0 72 72" enable-background="new 0 0 72 72" xml:space="preserve">
<circle fill="#95A5A6" cx="36" cy="36" r="36"/>
<g>
	<g>
		<path fill="#FFFFFF" d="M17.969,24.906v18.4h36v-18.4H17.969z M31.504,27.206c-1.401,1.686-2.286,4.152-2.286,6.901
			c0,2.748,0.884,5.214,2.286,6.899h-7.901C21.771,41,22.088,41,20.219,41V27.203 M51.719,27.203V41c-1.828,0-1.047,0-3.375,0.006
			h-7.911c1.401-1.686,2.286-4.151,2.286-6.899c0-2.749-0.885-5.215-2.286-6.901"/>
	</g>
	<rect x="18" y="44.05" fill="#FFFFFF" width="36" height="1.15"/>
	<rect x="18" y="46.35" fill="#FFFFFF" width="36" height="1.15"/>
</g>
</svg>
