<?xml version="1.0" encoding="utf-8"?>
<!-- Generator: Adobe Illustrator 16.0.0, SVG Export Plug-In . SVG Version: 6.00 Build 0)  -->
<!DOCTYPE svg PUBLIC "-//W3C//DTD SVG 1.1//EN" "http://www.w3.org/Graphics/SVG/1.1/DTD/svg11.dtd">
<svg version="1.1" id="Layer_1" xmlns="http://www.w3.org/2000/svg" xmlns:xlink="http://www.w3.org/1999/xlink" x="0px" y="0px"
	 width="32px" height="32px" viewBox="0 0 32 32" enable-background="new 0 0 32 32" xml:space="preserve">
<path d="M31.75,26.885l-7.066-7.156c1.149-2.008,1.75-4.241,1.75-6.49C26.434,5.94,20.5,0,13.217,0C5.933,0,0,5.94,0,13.238
	s5.933,13.238,13.217,13.238c2.325,0,4.625-0.642,6.675-1.866l7.033,7.132C27.083,31.9,27.309,32,27.533,32s0.45-0.092,0.608-0.258
	l3.608-3.649C32.083,27.751,32.083,27.218,31.75,26.885z M13.217,5.157c4.45,0,8.066,3.624,8.066,8.081s-3.616,8.081-8.066,8.081
	S5.15,17.695,5.15,13.238S8.767,5.157,13.217,5.157z"/>
</svg>
